<?xml version="1.0" standalone="no"?>
<!DOCTYPE svg PUBLIC "-//W3C//DTD SVG 20010904//EN"
 "http://www.w3.org/TR/2001/REC-SVG-20010904/DTD/svg10.dtd">
<svg version="1.0" xmlns="http://www.w3.org/2000/svg"
 width="129.000000pt" height="131.000000pt" viewBox="0 0 129.000000 131.000000"
 preserveAspectRatio="xMidYMid meet">
<metadata>
Created by potrace 1.10, written by Peter Selinger 2001-2011
</metadata>
<g transform="translate(0.000000,131.000000) scale(0.100000,-0.100000)"
fill="#000000" stroke="none">
<path d="M0 655 l0 -655 645 0 645 0 0 655 0 655 -645 0 -645 0 0 -655z m361
606 c19 -20 29 -40 29 -60 l0 -31 260 0 260 0 0 31 c0 21 10 40 30 61 27 26
36 30 68 25 45 -8 72 -38 72 -83 0 -31 3 -34 29 -34 59 0 129 -47 160 -107 8
-15 11 -159 11 -473 0 -484 1 -478 -52 -527 -56 -53 -60 -53 -580 -53 -447 0
-486 2 -523 19 -46 20 -91 69 -103 109 -9 35 -9 869 1 904 17 64 102 128 168
128 26 0 29 4 29 31 0 83 83 118 141 60z"/>
<path d="M278 1239 c-15 -8 -18 -24 -18 -89 0 -70 2 -81 21 -90 16 -9 26 -8
45 5 22 14 24 22 24 85 0 88 -24 118 -72 89z"/>
<path d="M966 1234 c-12 -11 -16 -35 -16 -84 0 -63 2 -71 24 -85 19 -13 29
-14 45 -5 19 9 21 20 21 90 0 68 -3 81 -19 90 -27 14 -37 13 -55 -6z"/>
<path d="M130 1108 c-62 -42 -73 -67 -78 -175 l-4 -98 598 3 599 2 -1 95 c0
79 -4 100 -21 123 -29 39 -81 72 -114 72 -25 0 -29 -4 -29 -29 0 -43 -9 -60
-42 -77 -57 -30 -128 13 -128 77 l0 29 -260 0 -260 0 0 -31 c0 -36 -47 -89
-80 -89 -29 0 -76 26 -84 45 -3 9 -6 30 -6 46 0 25 -4 29 -29 29 -15 0 -43
-10 -61 -22z"/>
<path d="M57 477 c2 -350 3 -354 66 -401 28 -21 36 -21 527 -21 491 0 499 0
527 21 63 47 63 50 64 398 l1 317 -594 2 -593 2 2 -318z m991 84 l-3 -86 -85
0 -85 0 -3 87 -3 87 78 3 c43 2 84 1 91 -1 9 -2 12 -26 10 -90z m-620 2 l-3
-88 -85 0 -85 0 -3 88 -3 87 91 0 91 0 -3 -87z m310 0 l-3 -88 -85 0 -85 0 -3
88 -3 87 91 0 91 0 -3 -87z m-310 -280 l-3 -88 -85 0 -85 0 -3 88 -3 87 91 0
91 0 -3 -87z m310 0 l-3 -88 -85 0 -85 0 -3 88 -3 87 91 0 91 0 -3 -87z m308
56 c3 -6 -19 -37 -52 -70 l-58 -59 -33 32 c-18 18 -33 37 -33 44 0 21 24 22
46 3 20 -19 21 -18 59 21 40 41 59 49 71 29z"/>
<path d="M910 563 l0 -53 50 0 50 0 0 53 0 52 -50 0 -50 0 0 -52z"/>
<path d="M290 563 l0 -53 50 0 50 0 0 53 0 52 -50 0 -50 0 0 -52z"/>
<path d="M600 563 l0 -53 50 0 50 0 0 53 0 52 -50 0 -50 0 0 -52z"/>
<path d="M338 333 l-48 -4 0 -50 0 -49 50 0 50 0 0 55 c0 30 -1 54 -2 53 -2
-1 -24 -3 -50 -5z"/>
<path d="M600 280 l0 -50 50 0 50 0 0 50 0 50 -50 0 -50 0 0 -50z"/>
</g>
</svg>
