<?xml version="1.0" standalone="no"?>
<!DOCTYPE svg PUBLIC "-//W3C//DTD SVG 20010904//EN"
 "http://www.w3.org/TR/2001/REC-SVG-20010904/DTD/svg10.dtd">
<svg version="1.0" xmlns="http://www.w3.org/2000/svg"
 width="129.000000pt" height="131.000000pt" viewBox="0 0 129.000000 131.000000"
 preserveAspectRatio="xMidYMid meet">
<metadata>
Created by potrace 1.10, written by Peter Selinger 2001-2011
</metadata>
<g transform="translate(0.000000,131.000000) scale(0.100000,-0.100000)"
fill="#000000" stroke="none">
<path d="M245 1265 c-17 -16 -25 -35 -25 -60 0 -32 -2 -35 -29 -35 -61 0 -126
-42 -157 -102 -21 -41 -21 -916 1 -957 20 -39 69 -78 113 -91 50 -14 954 -14
1004 0 48 14 97 55 114 97 21 48 20 912 0 951 -31 60 -96 102 -157 102 -27 0
-29 3 -29 35 0 46 -37 85 -80 85 -43 0 -90 -47 -90 -89 l0 -31 -260 0 -260 0
0 31 c0 20 -10 40 -29 60 -38 37 -82 39 -116 4z m89 -31 c12 -11 16 -35 16
-84 0 -63 -2 -71 -24 -85 -19 -13 -29 -14 -45 -5 -19 9 -21 20 -21 90 0 65 3
81 18 89 24 15 38 13 56 -5z m687 6 c16 -9 19 -22 19 -90 0 -70 -2 -81 -21
-90 -16 -9 -26 -8 -45 5 -22 14 -24 22 -24 85 0 88 22 116 71 90z m-801 -139
c0 -16 3 -37 6 -46 8 -19 55 -45 84 -45 33 0 80 53 80 89 l0 31 260 0 260 0 0
-31 c0 -36 47 -89 80 -89 29 0 76 26 84 45 3 9 6 30 6 46 0 25 4 29 29 29 33
0 85 -33 114 -72 17 -23 21 -44 21 -123 l1 -95 -595 0 -595 -1 2 98 c2 77 7
103 21 123 28 37 81 70 113 70 25 0 29 -4 29 -29z m1025 -623 c0 -295 -1 -315
-20 -347 -11 -19 -33 -43 -48 -55 -28 -21 -36 -21 -527 -21 -491 0 -499 0
-527 21 -63 47 -64 51 -66 401 l-2 318 595 -2 595 -2 0 -313z"/>
<path d="M947 652 l-78 -3 3 -87 3 -87 85 0 85 0 3 86 c2 64 -1 88 -10 90 -7
2 -48 3 -91 1z m61 -91 l3 -51 -50 0 -51 0 0 53 0 52 47 -1 48 -1 3 -52z"/>
<path d="M252 563 l3 -88 85 0 85 0 3 88 3 87 -91 0 -91 0 3 -87z m138 0 l0
-53 -50 0 -50 0 0 48 c0 27 2 51 4 53 2 2 25 4 50 4 l46 0 0 -52z"/>
<path d="M562 563 l3 -88 85 0 85 0 3 88 3 87 -91 0 -91 0 3 -87z m138 -3 l0
-50 -50 0 -50 0 0 50 0 50 50 0 50 0 0 -50z"/>
<path d="M252 283 l3 -88 85 0 85 0 3 88 3 87 -91 0 -91 0 3 -87z m138 2 l0
-55 -50 0 -50 0 0 49 0 50 48 4 c26 2 48 4 50 5 1 1 2 -23 2 -53z"/>
<path d="M562 283 l3 -88 85 0 85 0 3 88 3 87 -91 0 -91 0 3 -87z m138 -3 l0
-50 -50 0 -50 0 0 50 0 50 50 0 50 0 0 -50z"/>
<path d="M975 310 l-39 -40 -22 21 c-23 21 -44 19 -44 -5 0 -6 15 -26 33 -44
l33 -32 58 59 c54 54 64 81 32 81 -6 0 -29 -18 -51 -40z"/>
</g>
</svg>
