<?xml version="1.0" standalone="no"?>
<!DOCTYPE svg PUBLIC "-//W3C//DTD SVG 20010904//EN"
 "http://www.w3.org/TR/2001/REC-SVG-20010904/DTD/svg10.dtd">
<svg version="1.0" xmlns="http://www.w3.org/2000/svg"
 width="154.000000pt" height="156.000000pt" viewBox="0 0 154.000000 156.000000"
 preserveAspectRatio="xMidYMid meet">
<metadata>
Created by potrace 1.10, written by Peter Selinger 2001-2011
</metadata>
<g transform="translate(0.000000,156.000000) scale(0.100000,-0.100000)"
fill="#000000" stroke="none">
<path d="M609 1526 c-239 -50 -456 -230 -550 -456 -42 -99 -52 -171 -47 -332
4 -122 8 -154 30 -216 68 -189 211 -348 393 -437 111 -54 182 -68 330 -68 148
0 219 14 330 68 298 145 468 456 427 783 -19 155 -70 273 -174 402 -86 106
-245 208 -383 245 -82 23 -272 28 -356 11z m326 -56 c322 -82 545 -367 545
-695 0 -393 -322 -715 -715 -715 -393 0 -715 322 -715 715 0 326 223 611 543
695 99 26 241 26 342 0z"/>
<path d="M744 1436 c-3 -7 -4 -33 -2 -57 2 -36 7 -44 23 -44 17 0 20 8 23 58
3 52 1 57 -18 57 -11 0 -23 -6 -26 -14z"/>
<path d="M410 1253 c1 -26 337 -498 354 -498 16 0 326 271 326 285 0 5 -8 13
-17 19 -18 10 -66 -28 -232 -184 -41 -38 -76 -65 -78 -60 -1 6 -73 110 -159
233 -111 159 -161 222 -175 222 -12 0 -19 -7 -19 -17z"/>
<path d="M94 785 c-10 -26 10 -36 62 -33 41 3 49 6 49 23 0 17 -8 20 -53 23
-41 2 -54 0 -58 -13z"/>
<path d="M1324 785 c-10 -26 10 -36 62 -33 41 3 49 6 49 23 0 17 -8 20 -53 23
-41 2 -54 0 -58 -13z"/>
<path d="M747 214 c-4 -4 -7 -31 -7 -61 0 -50 1 -53 25 -53 25 0 26 2 23 57
-2 43 -7 59 -18 61 -9 1 -19 0 -23 -4z"/>
</g>
</svg>
