<?xml version="1.0" standalone="no"?>
<!DOCTYPE svg PUBLIC "-//W3C//DTD SVG 20010904//EN"
 "http://www.w3.org/TR/2001/REC-SVG-20010904/DTD/svg10.dtd">
<svg version="1.0" xmlns="http://www.w3.org/2000/svg"
 width="154.000000pt" height="156.000000pt" viewBox="0 0 154.000000 156.000000"
 preserveAspectRatio="xMidYMid meet">
<metadata>
Created by potrace 1.10, written by Peter Selinger 2001-2011
</metadata>
<g transform="translate(0.000000,156.000000) scale(0.100000,-0.100000)"
fill="#000000" stroke="none">
<path d="M0 780 l0 -780 770 0 770 0 0 780 0 780 -770 0 -770 0 0 -780z m914
746 c199 -39 378 -161 495 -340 58 -89 87 -161 107 -264 38 -197 0 -394 -107
-558 -308 -471 -979 -472 -1287 -1 -27 41 -62 108 -77 148 -26 67 -29 88 -33
231 -6 215 15 300 109 444 176 269 480 399 793 340z"/>
<path d="M594 1470 c-449 -118 -675 -613 -464 -1018 78 -150 171 -242 324
-319 246 -124 539 -89 769 92 66 53 142 151 187 244 197 403 -35 888 -478
1002 -98 25 -241 25 -338 -1z m191 -80 c0 -48 -2 -55 -20 -55 -16 0 -21 8 -23
44 -4 54 3 73 25 69 15 -3 18 -14 18 -58z m-181 -342 c86 -123 157 -227 159
-232 2 -5 30 16 63 46 185 172 228 207 246 197 10 -5 18 -13 18 -18 0 -12
-313 -291 -326 -291 -12 0 -10 -3 -202 271 -84 119 -152 224 -152 233 0 9 8
16 19 16 14 0 64 -63 175 -222z m-399 -273 c0 -17 -8 -20 -49 -23 -52 -3 -72
7 -62 33 4 13 17 15 58 13 45 -3 53 -6 53 -23z m1230 0 c0 -17 -8 -20 -49 -23
-52 -3 -72 7 -62 33 4 13 17 15 58 13 45 -3 53 -6 53 -23z m-650 -615 c0 -48
-2 -55 -20 -55 -16 0 -21 8 -23 44 -4 54 3 73 25 69 15 -3 18 -14 18 -58z"/>
</g>
</svg>
